<svg id="Capa_1" enable-background="new 0 0 512 512" height="512" viewBox="0 0 512 512" width="512" xmlns="http://www.w3.org/2000/svg"><g><path d="m424.107 101.274-8.486 25.024c-.612 1.804-.297 3.794.843 5.32l15.804 21.177c2.869 3.845.084 9.31-4.713 9.249l-26.422-.338c-1.905-.024-3.7.89-4.8 2.445l-15.257 21.574c-2.77 3.917-8.829 2.957-10.252-1.624l-7.844-25.233c-.565-1.819-1.99-3.243-3.809-3.809l-25.233-7.844c-4.581-1.424-5.541-7.483-1.624-10.252l21.574-15.257c1.555-1.1 2.47-2.895 2.445-4.8l-.338-26.422c-.061-4.797 5.404-7.582 9.249-4.713l21.177 15.804c1.527 1.139 3.516 1.454 5.32.843l25.024-8.486c4.545-1.539 8.883 2.799 7.342 7.342z" fill="#fe9901"/><path d="m427.552 162.044-26.42-.339c-1.901-.021-3.699.894-4.799 2.446l-15.26 21.58c-2.764 3.915-8.827 2.949-10.245-1.624l-4.768-15.322c.76-.411 1.459-1.017 2.024-1.809l15.99-22.618c1.151-1.634 3.031-2.59 5.035-2.569l27.694.36c2.364.031 4.265-1.223 5.292-2.98l10.174 13.626c2.866 3.844.082 9.311-4.717 9.249z" fill="#fb8801"/><circle cx="438.805" cy="403.495" fill="#60b7ff" r="23.362"/><path d="m462.172 403.495c0 12.907-10.461 23.358-23.368 23.358-12.897 0-23.358-10.451-23.358-23.358 0-.719.031-1.439.103-2.137 4.182 3.977 9.834 6.412 16.062 6.412 12.188 0 22.186-9.321 23.265-21.221 4.491 4.244 7.296 10.266 7.296 16.946z" fill="#26a6fe"/><path d="m23.924 510.936 320.867-136.646-100.52-100.52-100.521-100.52-136.645 320.867c-4.524 10.622 6.197 21.343 16.819 16.819z" fill="#fe7d43"/><path d="m344.787 374.29-320.866 136.643c-10.615 4.532-21.344-6.197-16.812-16.812l.062-.134c2.446.545 5.128.37 7.8-.771l314.72-134.023z" fill="#fd6930"/><g><g fill="#7acaa6"><path d="m46.833 400.834 95.491 59.676-53.953 22.978-60.61-37.883z"/><path d="m83.525 314.665 162.612 101.637-53.952 22.978-127.726-79.837z"/><path d="m120.223 228.503 210.091 131.305 14.482 14.482-48.779 20.775-194.867-121.778z"/></g><g fill="#57be92"><path d="m142.324 460.508-53.95 22.977-20.491-12.804 53.96-22.978z"/><path d="m246.135 416.299-53.951 22.978-20.48-12.805 53.95-22.977z"/><path d="m344.787 374.29-48.771 20.778-.011-.01-20.48-12.794 53.95-22.978.812.504.031.02z"/></g></g><g><path d="m135.624 4.212c-5.4 11.086-17.965 32.505-37.695 41.034-2.777 1.201-2.777 5.077 0 6.278 19.73 8.529 32.295 29.948 37.695 41.034 1.241 2.547 4.865 2.547 6.106 0 5.4-11.086 17.966-32.505 37.695-41.034 2.777-1.201 2.777-5.077 0-6.278-19.73-8.529-32.295-29.948-37.695-41.034-1.241-2.547-4.865-2.547-6.106 0z" fill="#fe9901"/><path d="m179.424 51.525c-19.729 8.525-32.291 29.947-37.697 41.036-1.234 2.545-4.86 2.545-6.104 0-1.942-3.98-4.803-9.3-8.592-14.868 5.932-11.768 18.638-32.377 38.118-40.797.201-.086.392-.191.565-.316 4.095 3.473 8.668 6.487 13.711 8.668 2.773 1.197 2.773 5.072-.001 6.277z" fill="#fb8801"/></g><g><path d="m345.39 425.811c-4.353 8.936-14.48 26.199-30.383 33.074-2.238.968-2.238 4.092 0 5.06 15.902 6.874 26.03 24.138 30.383 33.074 1 2.053 3.921 2.053 4.921 0 4.353-8.936 14.48-26.199 30.383-33.074 2.238-.968 2.238-4.092 0-5.06-15.902-6.874-26.03-24.138-30.383-33.074-1-2.053-3.921-2.053-4.921 0z" fill="#fe9901"/><path d="m380.693 463.945c-15.901 6.871-26.027 24.138-30.384 33.075-.995 2.051-3.918 2.051-4.92 0-1.565-3.208-3.871-7.496-6.925-11.984 4.781-9.485 15.022-26.096 30.723-32.883.162-.069.316-.154.455-.254 3.301 2.799 6.987 5.229 11.051 6.987 2.236.965 2.236 4.088 0 5.059z" fill="#fb8801"/></g><g fill="#acacac"><path d="m504.028 287.656c-9.976-11.294-23.18-17.832-37.181-18.411-6.605-.274-13.143.783-19.352 3.068-13.368-7.957-30.746-8.66-50.059-1.809-4.012 1.422-6.111 5.828-4.688 9.84s5.826 6.109 9.84 4.688c6.918-2.454 17.847-5.172 28.207-2.873-.914.778-1.811 1.588-2.689 2.431-10.587 10.157-12.909 26.94-5.287 38.209 4.32 6.387 12.123 10.495 20.364 10.723.247.006.492.01.738.01 7.367-.001 13.903-3.066 18.017-8.48 2.401-3.161 4.05-7.11 4.901-11.735 1.814-9.853-.437-20.194-5.94-28.468 1.76-.205 3.534-.276 5.311-.2 9.767.403 19.095 5.096 26.265 13.214 2.818 3.191 7.689 3.492 10.879.674s3.492-7.691.674-10.881zm-52.348 22.867c-.806 4.377-3.285 7.72-8.074 7.587-3.311-.092-6.458-1.642-8.019-3.95-3.422-5.059-1.96-13.507 3.19-18.449 2.157-2.068 4.454-3.865 6.856-5.375 4.989 5.24 7.356 13.076 6.047 20.187z"/><path d="m443.214 79.823c10.467 8.694 27.398 8.03 38.543-1.508.925-.791 1.819-1.604 2.683-2.438 1.268 10.534-2.509 21.146-5.63 27.79-1.809 3.853-.154 8.443 3.699 10.252 1.06.498 2.174.734 3.272.734 2.894 0 5.668-1.639 6.981-4.433 8.711-18.545 9.721-35.909 3.116-49.993 2.883-5.954 4.578-12.358 4.955-18.958.799-13.99-4.411-27.773-14.67-38.81-2.899-3.117-7.775-3.296-10.892-.397-3.117 2.898-3.296 7.774-.397 10.892 7.374 7.933 11.128 17.676 10.57 27.436-.101 1.775-.344 3.533-.721 5.266-7.693-6.289-17.77-9.552-27.746-8.708-4.688.392-8.779 1.646-12.162 3.725-5.984 3.681-9.727 10.181-10.27 17.832-.584 8.224 2.738 16.392 8.669 21.318zm6.706-20.227c.088-1.247.555-4.305 2.967-5.791 3.855-2.375 9.017-1.878 13.18-.756 1.156.312 12.864 5.749 11.692 7.259-1.739 2.242-3.753 4.352-6.024 6.295-5.423 4.64-13.974 5.265-18.673 1.362-2.143-1.78-3.376-5.065-3.142-8.369z"/><path d="m288.882 42.621c-3.997 1.465-6.049 5.892-4.584 9.889 11.139 30.392 1.922 84.522-18.606 109.281-2.717 3.277-2.263 8.136 1.014 10.852 1.439 1.193 3.182 1.774 4.915 1.774 2.214 0 4.413-.949 5.937-2.788 11.5-13.869 20.444-35.694 24.541-59.878 4.084-24.108 2.871-47.634-3.327-64.547-1.465-3.995-5.893-6.048-9.89-4.583z"/><path d="m459.515 230.78c3.998 1.465 8.424-.588 9.889-4.584 1.465-3.997-.588-8.424-4.584-9.889-16.911-6.198-40.436-7.41-64.546-3.327-24.184 4.096-46.009 13.041-59.879 24.541-3.277 2.717-3.731 7.576-1.014 10.852 1.524 1.838 3.722 2.788 5.937 2.788 1.733 0 3.477-.581 4.915-1.774 24.761-20.529 78.893-29.746 109.282-18.607z"/></g><circle cx="345.314" cy="31.128" fill="#60b7ff" r="23.362"/><path d="m368.679 31.125c0 12.907-10.461 23.368-23.368 23.368-12.897 0-23.358-10.461-23.358-23.368 0-.247 0-.493.021-.74 3.802 2.672 8.416 4.234 13.41 4.234 12.65 0 22.947-10.05 23.337-22.608 6.022 4.213 9.958 11.201 9.958 19.114z" fill="#26a6fe"/><circle cx="227.497" cy="94.468" fill="#60b7ff" r="23.362"/><path d="m250.862 94.467c0 12.907-10.461 23.358-23.368 23.358-12.897 0-23.358-10.451-23.358-23.358 0-.226 0-.452.021-.678 3.679 2.446 8.098 3.854 12.845 3.854 12.681 0 22.998-10.081 23.348-22.68 6.329 4.172 10.512 11.345 10.512 19.504z" fill="#26a6fe"/><path d="m164.081 136.124 216.671 216.671c3.021 3.021 3.021 7.918 0 10.939l-20.828 20.828c-3.021 3.021-7.918 3.021-10.939 0l-216.671-216.671c-3.021-3.021-3.021-7.918 0-10.939l20.828-20.828c3.021-3.021 7.919-3.021 10.939 0z" fill="#f3eae6"/><path d="m380.598 363.888-20.522 20.522c-3.103 3.103-8.139 3.103-11.242 0l-14.387-14.387c3.103 3.103 8.139 3.103 11.242 0l20.522-20.522c3.103-3.103 3.103-8.139 0-11.242l14.387 14.387c3.103 3.103 3.103 8.138 0 11.242z" fill="#e1d3ce"/></g></svg>